<?xml version="1.0" encoding="UTF-8"?>
<svg version="1.1" xmlns="http://www.w3.org/2000/svg" width="120" height="160">
<path d="M0 0 C6.6 0 13.2 0 20 0 C20 6.6 20 13.2 20 20 C16.7 20 13.4 20 10 20 C10 26.6 10 33.2 10 40 C13.3 40 16.6 40 20 40 C20 43.3 20 46.6 20 50 C16.7 50 13.4 50 10 50 C10 53.3 10 56.6 10 60 C6.7 60 3.4 60 0 60 C0 63.3 0 66.6 0 70 C3.3 70 6.6 70 10 70 C10 73.3 10 76.6 10 80 C13.3 80 16.6 80 20 80 C20 83.3 20 86.6 20 90 C23.3 90 26.6 90 30 90 C30 93.3 30 96.6 30 100 C33.3 100 36.6 100 40 100 C40 106.6 40 113.2 40 120 C33.4 120 26.8 120 20 120 C20 126.6 20 133.2 20 140 C23.3 140 26.6 140 30 140 C30 136.7 30 133.4 30 130 C33.3 130 36.6 130 40 130 C40 136.6 40 143.2 40 150 C36.7 150 33.4 150 30 150 C30 153.3 30 156.6 30 160 C26.7 160 23.4 160 20 160 C20 156.7 20 153.4 20 150 C16.7 150 13.4 150 10 150 C10 146.7 10 143.4 10 140 C6.7 140 3.4 140 0 140 C0 136.7 0 133.4 0 130 C-3.3 130 -6.6 130 -10 130 C-10 133.3 -10 136.6 -10 140 C-16.6 140 -23.2 140 -30 140 C-30 143.3 -30 146.6 -30 150 C-26.7 150 -23.4 150 -20 150 C-20 153.3 -20 156.6 -20 160 C-29.9 160 -39.8 160 -50 160 C-50 153.4 -50 146.8 -50 140 C-46.7 140 -43.4 140 -40 140 C-40 136.7 -40 133.4 -40 130 C-36.7 130 -33.4 130 -30 130 C-30 123.4 -30 116.8 -30 110 C-33.3 110 -36.6 110 -40 110 C-40 113.3 -40 116.6 -40 120 C-46.6 120 -53.2 120 -60 120 C-60 113.4 -60 106.8 -60 100 C-56.7 100 -53.4 100 -50 100 C-50 96.7 -50 93.4 -50 90 C-46.7 90 -43.4 90 -40 90 C-40 86.7 -40 83.4 -40 80 C-36.7 80 -33.4 80 -30 80 C-30 76.7 -30 73.4 -30 70 C-26.7 70 -23.4 70 -20 70 C-20 66.7 -20 63.4 -20 60 C-23.3 60 -26.6 60 -30 60 C-30 50.1 -30 40.2 -30 30 C-33.3 30 -36.6 30 -40 30 C-40 26.7 -40 23.4 -40 20 C-36.7 20 -33.4 20 -30 20 C-30 16.7 -30 13.4 -30 10 C-20.1 10 -10.2 10 0 10 C0 6.7 0 3.4 0 0 Z M-10 30 C-10 33.3 -10 36.6 -10 40 C-6.7 40 -3.4 40 0 40 C0 36.7 0 33.4 0 30 C-3.3 30 -6.6 30 -10 30 Z M10 110 C10 113.3 10 116.6 10 120 C13.3 120 16.6 120 20 120 C20 116.7 20 113.4 20 110 C16.7 110 13.4 110 10 110 Z " fill="#FFFFFF" transform="translate(70,0)"/>
</svg>
